<svg width="179" height="190" viewBox="0 0 179 190" fill="none" xmlns="http://www.w3.org/2000/svg">
<path d="M20.8409 75.9602V65.8182H68.625V75.9602H50.8125V124H38.6534V75.9602H20.8409ZM101.657 82.5511C101.43 80.2595 100.454 78.4792 98.7307 77.2102C97.0072 75.9413 94.6682 75.3068 91.7136 75.3068C89.7061 75.3068 88.011 75.5909 86.6284 76.1591C85.2458 76.7083 84.1852 77.4754 83.4466 78.4602C82.7269 79.4451 82.367 80.5625 82.367 81.8125C82.3292 82.8542 82.547 83.7633 83.0205 84.5398C83.5129 85.3163 84.1852 85.9886 85.0375 86.5568C85.8898 87.1061 86.8746 87.589 87.992 88.0057C89.1095 88.4034 90.3027 88.7443 91.5716 89.0284L96.7989 90.2784C99.3367 90.8466 101.666 91.6042 103.787 92.5511C105.909 93.4981 107.746 94.6629 109.299 96.0455C110.852 97.428 112.055 99.0568 112.907 100.932C113.778 102.807 114.223 104.956 114.242 107.381C114.223 110.941 113.314 114.028 111.515 116.642C109.734 119.237 107.159 121.254 103.787 122.693C100.435 124.114 96.3917 124.824 91.6568 124.824C86.9598 124.824 82.8689 124.104 79.3841 122.665C75.9182 121.225 73.2098 119.095 71.2591 116.273C69.3273 113.432 68.314 109.919 68.2193 105.733H80.1227C80.2553 107.684 80.814 109.312 81.7989 110.619C82.8027 111.907 84.1379 112.883 85.8045 113.545C87.4902 114.189 89.3936 114.511 91.5148 114.511C93.5981 114.511 95.4068 114.208 96.9409 113.602C98.4939 112.996 99.6966 112.153 100.549 111.074C101.401 109.994 101.827 108.754 101.827 107.352C101.827 106.045 101.439 104.947 100.662 104.057C99.9049 103.167 98.7875 102.409 97.3102 101.784C95.8519 101.159 94.0621 100.591 91.9409 100.08L85.6057 98.4886C80.7004 97.2955 76.8273 95.4299 73.9864 92.892C71.1455 90.3542 69.7345 86.9356 69.7534 82.6364C69.7345 79.1136 70.672 76.036 72.5659 73.4034C74.4788 70.7708 77.1019 68.7159 80.4352 67.2386C83.7686 65.7614 87.5564 65.0227 91.7989 65.0227C96.117 65.0227 99.886 65.7614 103.106 67.2386C106.344 68.7159 108.863 70.7708 110.662 73.4034C112.462 76.036 113.39 79.0852 113.447 82.5511H101.657Z" fill="#397ABA"/>
<path d="M120.774 116V93.0909H125.935V96.9837H126.203C126.68 95.6712 127.471 94.647 128.575 93.9112C129.678 93.1655 130.996 92.7926 132.527 92.7926C134.078 92.7926 135.386 93.1705 136.45 93.9261C137.523 94.6719 138.279 95.6911 138.717 96.9837H138.955C139.462 95.7109 140.317 94.6967 141.521 93.9411C142.734 93.1754 144.17 92.7926 145.831 92.7926C147.939 92.7926 149.659 93.4588 150.991 94.7912C152.324 96.1236 152.99 98.0675 152.99 100.623V116H147.576V101.458C147.576 100.036 147.198 98.9972 146.442 98.3409C145.687 97.6747 144.762 97.3416 143.668 97.3416C142.366 97.3416 141.347 97.7493 140.611 98.5646C139.885 99.37 139.522 100.419 139.522 101.712V116H134.227V101.234C134.227 100.051 133.869 99.1065 133.153 98.4006C132.447 97.6946 131.523 97.3416 130.379 97.3416C129.604 97.3416 128.898 97.5405 128.261 97.9382C127.625 98.326 127.118 98.8778 126.74 99.5938C126.362 100.3 126.173 101.125 126.173 102.07V116H120.774ZM163.609 116.403C161.809 116.403 160.198 115.94 158.777 115.016C157.355 114.091 156.231 112.749 155.406 110.989C154.581 109.229 154.168 107.091 154.168 104.575C154.168 102.03 154.585 99.8821 155.421 98.1321C156.266 96.3722 157.404 95.0447 158.836 94.1499C160.268 93.245 161.864 92.7926 163.624 92.7926C164.966 92.7926 166.07 93.0213 166.935 93.4787C167.8 93.9261 168.486 94.468 168.993 95.1044C169.5 95.7308 169.893 96.3224 170.171 96.8793H170.395V85.4545H175.809V116H170.5V112.391H170.171C169.893 112.947 169.49 113.539 168.963 114.165C168.436 114.782 167.74 115.309 166.875 115.746C166.01 116.184 164.921 116.403 163.609 116.403ZM165.115 111.973C166.259 111.973 167.233 111.665 168.039 111.048C168.844 110.422 169.456 109.552 169.873 108.438C170.291 107.325 170.5 106.027 170.5 104.545C170.5 103.064 170.291 101.776 169.873 100.683C169.465 99.5888 168.859 98.7386 168.054 98.1321C167.258 97.5256 166.279 97.2223 165.115 97.2223C163.912 97.2223 162.908 97.5355 162.103 98.1619C161.297 98.7884 160.691 99.6534 160.283 100.757C159.875 101.861 159.671 103.124 159.671 104.545C159.671 105.977 159.875 107.255 160.283 108.379C160.701 109.492 161.312 110.372 162.117 111.018C162.933 111.655 163.932 111.973 165.115 111.973Z" fill="#397ABA"/>
</svg>
