<svg width="179" height="190" viewBox="0 0 179 190" fill="none" xmlns="http://www.w3.org/2000/svg">
<g clip-path="url(#clip0_1065_292)">
<path d="M145 25L175 52V177.016C175 184.195 169.18 190.016 162 190.016H17C9.8203 190.016 4 184.195 4 177.016V13.0156C4 5.83592 9.8203 0.0156251 17 0.015625H118.017L145 25Z" fill="#397ABA"/>
<path d="M123.008 0C123.342 0 123.675 0.00350504 124.007 0.00976562L148.588 24.4961L174.971 50.042C174.995 50.6917 175.008 51.3444 175.008 52H131.008C123.828 52 118.008 46.1797 118.008 39V0H123.008Z" fill="#2868A6"/>
<path d="M23.2727 73.5838V65.4702H61.5V73.5838H47.25V112.016H37.5227V73.5838H23.2727ZM87.9255 78.8565C87.7436 77.0232 86.9633 75.599 85.5845 74.5838C84.2058 73.5687 82.3345 73.0611 79.9709 73.0611C78.3648 73.0611 77.0088 73.2884 75.9027 73.7429C74.7967 74.1823 73.9482 74.7959 73.3573 75.5838C72.7815 76.3717 72.4936 77.2656 72.4936 78.2656C72.4633 79.099 72.6376 79.8262 73.0164 80.4474C73.4103 81.0687 73.9482 81.6065 74.63 82.0611C75.3118 82.5005 76.0997 82.8868 76.9936 83.2202C77.8876 83.5384 78.8421 83.8111 79.8573 84.0384L84.0391 85.0384C86.0694 85.4929 87.933 86.099 89.63 86.8565C91.327 87.6141 92.7967 88.5459 94.0391 89.652C95.2815 90.758 96.2436 92.0611 96.9255 93.5611C97.6224 95.0611 97.9785 96.7808 97.9936 98.7202C97.9785 101.569 97.2512 104.038 95.8118 106.129C94.3876 108.205 92.327 109.819 89.63 110.97C86.9482 112.107 83.7133 112.675 79.9255 112.675C76.1679 112.675 72.8952 112.099 70.1073 110.947C67.3345 109.796 65.1679 108.091 63.6073 105.834C62.0618 103.561 61.2512 100.75 61.1755 97.402H70.6982C70.8042 98.9626 71.2512 100.266 72.0391 101.311C72.8421 102.341 73.9103 103.122 75.2436 103.652C76.5921 104.167 78.1148 104.425 79.8118 104.425C81.4785 104.425 82.9255 104.182 84.1527 103.697C85.3952 103.213 86.3573 102.538 87.0391 101.675C87.7209 100.811 88.0618 99.8187 88.0618 98.6974C88.0618 97.652 87.7512 96.7732 87.13 96.0611C86.5239 95.349 85.63 94.7429 84.4482 94.2429C83.2815 93.7429 81.8497 93.2884 80.1527 92.8793L75.0845 91.6065C71.1603 90.652 68.0618 89.1596 65.7891 87.1293C63.5164 85.099 62.3876 82.3641 62.4027 78.9247C62.3876 76.1065 63.1376 73.6444 64.6527 71.5384C66.183 69.4323 68.2815 67.7884 70.9482 66.6065C73.6148 65.4247 76.6452 64.8338 80.0391 64.8338C83.4936 64.8338 86.5088 65.4247 89.0845 66.6065C91.6755 67.7884 93.6906 69.4323 95.13 71.5384C96.5694 73.6444 97.3118 76.0838 97.3573 78.8565H87.9255Z" fill="white"/>
<path d="M107.378 106.016V86.3793H111.801V89.7159H112.031C112.44 88.5909 113.118 87.7131 114.064 87.0824C115.01 86.4432 116.139 86.1236 117.452 86.1236C118.781 86.1236 119.902 86.4474 120.814 87.0952C121.734 87.7344 122.382 88.608 122.757 89.7159H122.962C123.396 88.625 124.129 87.7557 125.161 87.108C126.2 86.4517 127.432 86.1236 128.855 86.1236C130.662 86.1236 132.136 86.6946 133.278 87.8366C134.42 88.9787 134.991 90.6449 134.991 92.8352V106.016H130.351V93.5511C130.351 92.3324 130.027 91.4418 129.379 90.8793C128.732 90.3082 127.939 90.0227 127.001 90.0227C125.885 90.0227 125.011 90.3722 124.381 91.071C123.759 91.7614 123.447 92.6605 123.447 93.7685V106.016H118.909V93.3594C118.909 92.3452 118.602 91.5355 117.989 90.9304C117.384 90.3253 116.591 90.0227 115.611 90.0227C114.946 90.0227 114.341 90.1932 113.795 90.5341C113.25 90.8665 112.815 91.3395 112.491 91.9531C112.168 92.5582 112.006 93.2656 112.006 94.0753V106.016H107.378ZM144.093 106.361C142.551 106.361 141.17 105.964 139.951 105.172C138.733 104.379 137.77 103.229 137.062 101.72C136.355 100.212 136.001 98.3793 136.001 96.223C136.001 94.0412 136.359 92.2003 137.075 90.7003C137.799 89.1918 138.775 88.054 140.002 87.2869C141.23 86.5114 142.598 86.1236 144.106 86.1236C145.257 86.1236 146.203 86.3196 146.944 86.7116C147.686 87.0952 148.274 87.5597 148.708 88.1051C149.143 88.642 149.48 89.1491 149.718 89.6264H149.91V79.8338H154.551V106.016H150V102.922H149.718C149.48 103.399 149.135 103.906 148.683 104.443C148.231 104.972 147.635 105.423 146.893 105.798C146.152 106.173 145.218 106.361 144.093 106.361ZM145.385 102.564C146.365 102.564 147.2 102.3 147.89 101.771C148.581 101.234 149.105 100.489 149.463 99.5341C149.821 98.5795 150 97.4673 150 96.1974C150 94.9276 149.821 93.8239 149.463 92.8864C149.113 91.9489 148.593 91.2202 147.903 90.7003C147.221 90.1804 146.382 89.9205 145.385 89.9205C144.353 89.9205 143.493 90.1889 142.802 90.7259C142.112 91.2628 141.592 92.0043 141.243 92.9503C140.893 93.8963 140.718 94.9787 140.718 96.1974C140.718 97.4247 140.893 98.5199 141.243 99.483C141.6 100.437 142.125 101.192 142.815 101.746C143.514 102.291 144.37 102.564 145.385 102.564Z" fill="white"/>
<path d="M73 132.181C78.9272 135.021 81.714 139.727 85 145.181C90.7683 144.778 94.1565 143.047 98.8125 139.618C103.726 136.261 107.699 133.806 113.879 134.415C118.679 136.148 120.958 140.413 123.438 144.618C125.029 146.526 125.029 146.526 128.312 146.618C132.192 146.158 134.56 144.939 138 143.181C140.375 143.493 140.375 143.493 142 144.181C142 146.431 142 146.431 141 149.181C136.365 152.968 131.105 153.837 125.258 153.56C120.25 152.719 118.006 149.291 115.188 145.431C114.105 143.822 114.105 143.822 113 142.181C106.746 142.317 103.268 144.766 98.332 148.489C93.8833 151.716 90.6504 152.699 85.1758 152.556C81.5592 151.932 80.1781 150.024 78 147.181C77.6043 146.557 77.2085 145.933 76.8008 145.29C74.3292 141.224 74.3292 141.224 70.0625 139.493C65.3944 140.541 62.452 143.025 58.7969 145.935C58.0183 146.552 57.2397 147.169 56.4375 147.806C55.7143 148.396 54.9912 148.986 54.2461 149.595C50.4796 152.254 47.9428 153.245 43.3125 152.931C40 152.181 40 152.181 38 150.181C38.375 148.056 38.375 148.056 39 146.181C40.2169 146.222 41.4338 146.263 42.6875 146.306C49.0226 145.664 53.203 141.55 57.8867 137.626C62.6718 133.868 66.8035 131.277 73 132.181Z" fill="#F1F3F4"/>
</g>
<defs>
<clipPath id="clip0_1065_292">
<rect width="179" height="190" fill="white"/>
</clipPath>
</defs>
</svg>
